<?xml version="1.0" encoding="UTF-8" standalone="no"?>
<!DOCTYPE svg PUBLIC "-//W3C//DTD SVG 1.1//EN" "http://www.w3.org/Graphics/SVG/1.1/DTD/svg11.dtd">
<svg width="100%" height="100%" viewBox="0 0 78 90" version="1.1" xmlns="http://www.w3.org/2000/svg" xmlns:xlink="http://www.w3.org/1999/xlink" xml:space="preserve" xmlns:serif="http://www.serif.com/" style="fill-rule:evenodd;clip-rule:evenodd;stroke-linejoin:round;stroke-miterlimit:2;">
    <g transform="matrix(1,0,0,1,-11.0723,-10.9168)">
        <g transform="matrix(1,0,0,1,0,5.91677)">
            <path d="M18.572,5C14.461,5 11.072,8.388 11.072,12.5L11.072,87.5C11.072,91.612 14.461,95 18.572,95L81.428,95C85.539,95 88.928,91.612 88.928,87.5L88.928,12.5C88.928,8.388 85.539,5 81.428,5L18.572,5ZM18.572,10L81.428,10C82.856,10 83.928,11.072 83.928,12.5L83.928,87.5C83.928,88.928 82.856,90 81.428,90L18.572,90C17.144,90 16.072,88.928 16.072,87.5L16.072,12.5C16.072,11.072 17.144,10 18.572,10ZM50,18.123C46.228,18.138 43.184,21.24 43.209,25.051C43.184,28.899 46.228,32.002 50,31.982C53.772,32.002 56.816,28.899 56.791,25.051C56.816,21.24 53.772,18.138 50,18.123ZM42.805,33.891C38.029,33.91 33.82,41.922 33.836,46.828L66.164,46.828C66.181,41.922 61.97,33.91 57.195,33.891L42.805,33.891ZM21.936,56.654L21.936,61.596L77.568,61.596L77.568,56.654L21.936,56.654ZM21.936,66.848L21.936,71.789L77.568,71.789L77.568,66.848L21.936,66.848ZM21.936,77.041L21.936,81.982L77.568,81.982L77.568,77.041L21.936,77.041Z" style="fill-rule:nonzero;"/>
        </g>
    </g>
</svg>
